# xmcd
#
# Track frame offsets: 
#        150
#        13614
#        26020
#        39973
#        50713
#        64114
#        78103
#        91964
#        105753
#        116503
#        129180
#        139729
#        152223
#        163277
#        175018
#        186571
#        201490
#        213819
#        226766
#        237279
#
# Disc length: 3324 seconds
#
# Revision: 2
# Processed by: cddbd v1.5.2PL0 Copyright (c) Steve Scherf et al.
# Submitted via: ExactAudioCopyFreeDBPlugin 1.0
#
DISCID=030cfa14
DTITLE=Charley Patton, Snooky Pryor - ABC Of The Blues - Vol. 35 Patto
DTITLE=n, Pryor
DYEAR=2010
DGENRE=Blues
TTITLE0=Charley Patton - High Water Everywhere Pt. 1
TTITLE1=Charley Patton - Hang It On The Wall
TTITLE2=Charley Patton - Prayer Of Death Pt. 1
TTITLE3=Charley Patton - Sic Em Dogs On
TTITLE4=Charley Patton - Watch And Pray
TTITLE5=Charley Patton - Snatch And Grab It
TTITLE6=Charley Patton - M And O Blues
TTITLE7=Charley Patton - Dark Road Blues
TTITLE8=Charley Patton - Country Farm Blues
TTITLE9=Charley Patton - Forty Four
TTITLE10=Snooky Pryor - Snooky And Moody's Boogie
TTITLE11=Snooky Pryor - Telephone Blues
TTITLE12=Snooky Pryor - Boogy Fool
TTITLE13=Snooky Pryor - Stop The Train, Conductor
TTITLE14=Snooky Pryor - Walking Boogie
TTITLE15=Snooky Pryor - Uncle Sam, Don't Take my Man
TTITLE16=Snooky Pryor - Rough Treatment
TTITLE17=Snooky Pryor - Stockyard Blues
TTITLE18=Snooky Pryor - Keep What You Got
TTITLE19=Snooky Pryor - Let Me Ride Your Mule
EXTD=
EXTT0=
EXTT1=
EXTT2=
EXTT3=
EXTT4=
EXTT5=
EXTT6=
EXTT7=
EXTT8=
EXTT9=
EXTT10=
EXTT11=
EXTT12=
EXTT13=
EXTT14=
EXTT15=
EXTT16=
EXTT17=
EXTT18=
EXTT19=
PLAYORDER=
